<svg width="66" height="66" viewBox="0 0 66 66" fill="none" xmlns="http://www.w3.org/2000/svg">
<mask id="path-1-outside-1_1_307" maskUnits="userSpaceOnUse" x="0.922302" y="0.922241" width="65" height="65" fill="black">
<rect fill="white" x="0.922302" y="0.922241" width="65" height="65"/>
<path fill-rule="evenodd" clip-rule="evenodd" d="M29.993 37.917V36.0819L17.4041 36.1923C16.8553 36.1971 16.4129 36.6434 16.4129 37.1923V41.9556C16.4129 42.7807 15.4701 43.2508 14.8111 42.7543L3.32055 34.097C2.78663 33.6947 2.79015 32.892 3.3276 32.4944L14.8182 23.9945C15.4782 23.5063 16.4129 23.9775 16.4129 24.7985V29.3721C16.4129 29.9279 16.8659 30.377 17.4216 30.3721L29.993 30.2618V17.4128C29.993 16.8605 29.5453 16.4128 28.993 16.4128H24.2384C23.4133 16.4128 22.9432 15.47 23.4397 14.8111L32.097 3.32049C32.4993 2.78656 33.302 2.79009 33.6996 3.32754L42.1995 14.8181C42.6877 15.4781 42.2165 16.4128 41.3955 16.4128H36.813C36.2608 16.4128 35.813 16.8605 35.813 17.4128V30.2108L37.5203 30.1958C37.6309 30.1948 37.7374 30.2118 37.8371 30.2441C37.9415 30.2071 38.0539 30.1869 38.1711 30.1869H48.5872C49.1395 30.1869 49.5872 29.7392 49.5872 29.1869V24.4323C49.5872 23.6073 50.53 23.1372 51.1889 23.6337L62.6795 32.2909C63.2134 32.6932 63.2099 33.496 62.6724 33.8936L51.1819 42.3934C50.5218 42.8817 49.5872 42.4105 49.5872 41.5895V37.007C49.5872 36.4547 49.1395 36.007 48.5872 36.007L38.1711 36.007C38.0635 36.007 37.96 35.99 37.8629 35.9586C37.7612 35.9947 37.6518 36.0147 37.5379 36.0157L35.813 36.0308V37.917C35.813 38.0293 35.7945 38.1373 35.7604 38.238C35.7945 38.3388 35.813 38.4467 35.813 38.559V48.9752C35.813 49.5274 36.2608 49.9752 36.813 49.9752H41.5676C42.3927 49.9752 42.8628 50.9179 42.3663 51.5769L33.7091 63.0675C33.3068 63.6014 32.504 63.5979 32.1064 63.0604L23.6066 51.5699C23.1183 50.9098 23.5895 49.9752 24.4105 49.9752H28.993C29.5453 49.9752 29.993 49.5274 29.993 48.9752L29.993 38.559C29.993 38.4467 30.0115 38.3388 30.0456 38.238C30.0115 38.1373 29.993 38.0293 29.993 37.917Z"/>
</mask>
<path fill-rule="evenodd" clip-rule="evenodd" d="M29.993 37.917V36.0819L17.4041 36.1923C16.8553 36.1971 16.4129 36.6434 16.4129 37.1923V41.9556C16.4129 42.7807 15.4701 43.2508 14.8111 42.7543L3.32055 34.097C2.78663 33.6947 2.79015 32.892 3.3276 32.4944L14.8182 23.9945C15.4782 23.5063 16.4129 23.9775 16.4129 24.7985V29.3721C16.4129 29.9279 16.8659 30.377 17.4216 30.3721L29.993 30.2618V17.4128C29.993 16.8605 29.5453 16.4128 28.993 16.4128H24.2384C23.4133 16.4128 22.9432 15.47 23.4397 14.8111L32.097 3.32049C32.4993 2.78656 33.302 2.79009 33.6996 3.32754L42.1995 14.8181C42.6877 15.4781 42.2165 16.4128 41.3955 16.4128H36.813C36.2608 16.4128 35.813 16.8605 35.813 17.4128V30.2108L37.5203 30.1958C37.6309 30.1948 37.7374 30.2118 37.8371 30.2441C37.9415 30.2071 38.0539 30.1869 38.1711 30.1869H48.5872C49.1395 30.1869 49.5872 29.7392 49.5872 29.1869V24.4323C49.5872 23.6073 50.53 23.1372 51.1889 23.6337L62.6795 32.2909C63.2134 32.6932 63.2099 33.496 62.6724 33.8936L51.1819 42.3934C50.5218 42.8817 49.5872 42.4105 49.5872 41.5895V37.007C49.5872 36.4547 49.1395 36.007 48.5872 36.007L38.1711 36.007C38.0635 36.007 37.96 35.99 37.8629 35.9586C37.7612 35.9947 37.6518 36.0147 37.5379 36.0157L35.813 36.0308V37.917C35.813 38.0293 35.7945 38.1373 35.7604 38.238C35.7945 38.3388 35.813 38.4467 35.813 38.559V48.9752C35.813 49.5274 36.2608 49.9752 36.813 49.9752H41.5676C42.3927 49.9752 42.8628 50.9179 42.3663 51.5769L33.7091 63.0675C33.3068 63.6014 32.504 63.5979 32.1064 63.0604L23.6066 51.5699C23.1183 50.9098 23.5895 49.9752 24.4105 49.9752H28.993C29.5453 49.9752 29.993 49.5274 29.993 48.9752L29.993 38.559C29.993 38.4467 30.0115 38.3388 30.0456 38.238C30.0115 38.1373 29.993 38.0293 29.993 37.917Z" fill="#D9D9D9"/>
<path d="M29.993 36.0819H31.993V34.0643L29.9754 34.0819L29.993 36.0819ZM17.4041 36.1923L17.3865 34.1924H17.3865L17.4041 36.1923ZM16.4129 37.1923H18.4129V37.1923L16.4129 37.1923ZM14.8111 42.7543L13.6076 44.3517H13.6076L14.8111 42.7543ZM3.32055 34.097L2.11706 35.6944H2.11706L3.32055 34.097ZM3.3276 32.4944L2.1382 30.8865L2.1382 30.8865L3.3276 32.4944ZM14.8182 23.9945L16.0076 25.6024H16.0076L14.8182 23.9945ZM17.4216 30.3721L17.4392 32.372H17.4392L17.4216 30.3721ZM29.993 30.2618L30.0105 32.2617L31.993 32.2443V30.2618H29.993ZM23.4397 14.8111L21.8423 13.6076L23.4397 14.8111ZM32.097 3.32049L30.4996 2.11699V2.11699L32.097 3.32049ZM33.6996 3.32754L32.0917 4.51694L32.0917 4.51694L33.6996 3.32754ZM42.1995 14.8181L43.8074 13.6287L43.8074 13.6287L42.1995 14.8181ZM35.813 30.2108H33.813V32.2284L35.8306 32.2107L35.813 30.2108ZM37.5203 30.1958L37.5379 32.1957H37.5379L37.5203 30.1958ZM37.8371 30.2441L37.2215 32.147L37.8662 32.3555L38.5049 32.1293L37.8371 30.2441ZM51.1889 23.6337L52.3924 22.0363L51.1889 23.6337ZM62.6795 32.2909L63.883 30.6936H63.883L62.6795 32.2909ZM62.6724 33.8936L61.483 32.2857L61.483 32.2857L62.6724 33.8936ZM51.1819 42.3934L52.3713 44.0013L52.3713 44.0013L51.1819 42.3934ZM48.5872 36.007V38.007V36.007ZM38.1711 36.007L38.1711 34.007H38.1711V36.007ZM37.8629 35.9586L38.4786 34.0557L37.8341 33.8472L37.1955 34.0733L37.8629 35.9586ZM37.5379 36.0157L37.5203 34.0158H37.5203L37.5379 36.0157ZM35.813 36.0308L35.7955 34.0309L33.813 34.0483V36.0308H35.813ZM35.7604 38.238L33.8661 37.5964L33.6488 38.238L33.8661 38.8797L35.7604 38.238ZM42.3663 51.5769L43.9637 52.7804H43.9637L42.3663 51.5769ZM33.7091 63.0675L35.3064 64.271V64.271L33.7091 63.0675ZM32.1064 63.0604L33.7143 61.871L33.7143 61.871L32.1064 63.0604ZM23.6066 51.5699L25.2145 50.3804L25.2144 50.3804L23.6066 51.5699ZM29.993 48.9752L27.993 48.9751V48.9752H29.993ZM29.993 38.559H31.993H29.993ZM30.0456 38.238L31.9399 38.8797L32.1572 38.238L31.9399 37.5964L30.0456 38.238ZM27.993 36.0819V37.917H31.993V36.0819H27.993ZM17.4216 38.1922L30.0105 38.0818L29.9754 34.0819L17.3865 34.1924L17.4216 38.1922ZM18.4129 37.1923C18.4129 37.7411 17.9705 38.1874 17.4216 38.1922L17.3865 34.1924C15.74 34.2068 14.4129 35.5457 14.4129 37.1923L18.4129 37.1923ZM18.4129 41.9556V37.1923H14.4129V41.9556H18.4129ZM13.6076 44.3517C15.5845 45.8411 18.4129 44.4308 18.4129 41.9556H14.4129C14.4129 41.1306 15.3557 40.6604 16.0146 41.1569L13.6076 44.3517ZM2.11706 35.6944L13.6076 44.3517L16.0146 41.1569L4.52405 32.4997L2.11706 35.6944ZM2.1382 30.8865C0.52586 32.0792 0.515273 34.4876 2.11706 35.6944L4.52405 32.4997C5.05798 32.9019 5.05445 33.7047 4.517 34.1023L2.1382 30.8865ZM13.6288 22.3866L2.1382 30.8865L4.517 34.1023L16.0076 25.6024L13.6288 22.3866ZM18.4129 24.7985C18.4129 22.3355 15.6089 20.9219 13.6288 22.3866L16.0076 25.6024C15.3475 26.0907 14.4129 25.6195 14.4129 24.7985H18.4129ZM18.4129 29.3721V24.7985H14.4129V29.3721H18.4129ZM17.4041 28.3722C17.9598 28.3673 18.4129 28.8164 18.4129 29.3721H14.4129C14.4129 31.0393 15.7721 32.3867 17.4392 32.372L17.4041 28.3722ZM29.9754 28.2619L17.4041 28.3722L17.4392 32.372L30.0105 32.2617L29.9754 28.2619ZM27.993 17.4128V30.2618H31.993V17.4128H27.993ZM28.993 18.4128C28.4407 18.4128 27.993 17.9651 27.993 17.4128H31.993C31.993 15.7559 30.6498 14.4128 28.993 14.4128V18.4128ZM24.2384 18.4128H28.993V14.4128H24.2384V18.4128ZM21.8423 13.6076C20.3529 15.5844 21.7632 18.4128 24.2384 18.4128V14.4128C25.0634 14.4128 25.5336 15.3556 25.0371 16.0146L21.8423 13.6076ZM30.4996 2.11699L21.8423 13.6076L25.0371 16.0146L33.6943 4.52399L30.4996 2.11699ZM35.3075 2.13814C34.1148 0.5258 31.7064 0.515209 30.4996 2.11699L33.6943 4.52399C33.2921 5.05792 32.4893 5.05439 32.0917 4.51694L35.3075 2.13814ZM43.8074 13.6287L35.3075 2.13814L32.0917 4.51694L40.5916 16.0075L43.8074 13.6287ZM41.3955 18.4128C43.8585 18.4128 45.2721 15.6088 43.8074 13.6287L40.5916 16.0075C40.1033 15.3475 40.5745 14.4128 41.3955 14.4128V18.4128ZM36.813 18.4128H41.3955V14.4128H36.813V18.4128ZM37.813 17.4128C37.813 17.9651 37.3653 18.4128 36.813 18.4128V14.4128C35.1562 14.4128 33.813 15.7559 33.813 17.4128H37.813ZM37.813 30.2108V17.4128H33.813V30.2108H37.813ZM37.5028 28.1959L35.7955 28.2108L35.8306 32.2107L37.5379 32.1957L37.5028 28.1959ZM38.4527 28.3411C38.1511 28.2436 37.8309 28.193 37.5028 28.1959L37.5379 32.1957C37.4309 32.1966 37.3237 32.18 37.2215 32.147L38.4527 28.3411ZM38.1711 28.1869C37.8233 28.1869 37.4852 28.247 37.1693 28.3588L38.5049 32.1293C38.3979 32.1672 38.2846 32.1869 38.1711 32.1869V28.1869ZM48.5872 28.1869H38.1711V32.1869H48.5872V28.1869ZM47.5872 29.1869C47.5872 28.6347 48.0349 28.1869 48.5872 28.1869V32.1869C50.244 32.1869 51.5872 30.8438 51.5872 29.1869H47.5872ZM47.5872 24.4323V29.1869H51.5872V24.4323H47.5872ZM52.3924 22.0363C50.4156 20.5469 47.5872 21.9572 47.5872 24.4323H51.5872C51.5872 25.2574 50.6444 25.7275 49.9854 25.231L52.3924 22.0363ZM63.883 30.6936L52.3924 22.0363L49.9854 25.231L61.476 33.8883L63.883 30.6936ZM63.8618 35.5015C65.4742 34.3088 65.4848 31.9004 63.883 30.6936L61.476 33.8883C60.9421 33.486 60.9456 32.6832 61.483 32.2857L63.8618 35.5015ZM52.3713 44.0013L63.8618 35.5015L61.483 32.2857L49.9925 40.7855L52.3713 44.0013ZM47.5872 41.5895C47.5872 44.0525 50.3911 45.4661 52.3713 44.0013L49.9925 40.7855C50.6525 40.2973 51.5872 40.7685 51.5872 41.5895H47.5872ZM47.5872 37.007V41.5895H51.5872V37.007H47.5872ZM48.5872 38.007C48.0349 38.007 47.5872 37.5593 47.5872 37.007H51.5872C51.5872 35.3501 50.244 34.007 48.5872 34.007V38.007ZM38.1711 38.007L48.5872 38.007L48.5872 34.007L38.1711 34.007L38.1711 38.007ZM37.2473 37.8615C37.5408 37.9565 37.852 38.007 38.1711 38.007V34.007C38.2751 34.007 38.3792 34.0236 38.4786 34.0557L37.2473 37.8615ZM37.5554 38.0156C37.8938 38.0126 38.2227 37.9529 38.5304 37.844L37.1955 34.0733C37.2997 34.0364 37.4098 34.0167 37.5203 34.0158L37.5554 38.0156ZM35.8306 38.0307L37.5554 38.0156L37.5203 34.0158L35.7955 34.0309L35.8306 38.0307ZM37.813 37.917V36.0308H33.813V37.917H37.813ZM37.6547 38.8796C37.7579 38.5749 37.813 38.2504 37.813 37.917H33.813C33.813 37.8083 33.8312 37.6996 33.8661 37.5964L37.6547 38.8796ZM37.813 38.559C37.813 38.2257 37.7579 37.9011 37.6547 37.5964L33.8661 38.8797C33.8312 38.7765 33.8131 38.6678 33.8131 38.559H37.813ZM37.813 48.9752V38.559H33.8131V48.9752H37.813ZM36.813 47.9752C37.3653 47.9752 37.813 48.4229 37.813 48.9752H33.8131C33.8131 50.632 35.1562 51.9752 36.813 51.9752V47.9752ZM41.5676 47.9752H36.813V51.9752H41.5676V47.9752ZM43.9637 52.7804C45.4531 50.8035 44.0428 47.9752 41.5676 47.9752V51.9752C40.7426 51.9752 40.2725 51.0324 40.769 50.3734L43.9637 52.7804ZM35.3064 64.271L43.9637 52.7804L40.769 50.3734L32.1117 61.864L35.3064 64.271ZM30.4985 64.2498C31.6912 65.8622 34.0996 65.8727 35.3064 64.271L32.1117 61.864C32.514 61.33 33.3168 61.3336 33.7143 61.871L30.4985 64.2498ZM21.9987 52.7593L30.4985 64.2498L33.7143 61.871L25.2145 50.3804L21.9987 52.7593ZM24.4105 47.9752C21.9475 47.9752 20.5339 50.7791 21.9987 52.7593L25.2144 50.3804C25.7027 51.0405 25.2315 51.9752 24.4105 51.9752V47.9752ZM28.993 47.9752H24.4105V51.9752H28.993V47.9752ZM27.993 48.9752C27.993 48.4229 28.4407 47.9752 28.993 47.9752V51.9752C30.6498 51.9752 31.993 50.632 31.993 48.9752H27.993ZM27.993 38.559L27.993 48.9751L31.993 48.9752L31.993 38.559L27.993 38.559ZM28.1513 37.5964C28.0481 37.9011 27.993 38.2257 27.993 38.559H31.993C31.993 38.6678 31.9749 38.7764 31.9399 38.8797L28.1513 37.5964ZM27.993 37.917C27.993 38.2504 28.0481 38.5749 28.1513 38.8797L31.9399 37.5964C31.9749 37.6996 31.993 37.8083 31.993 37.917H27.993Z" fill="#716B6B" mask="url(#path-1-outside-1_1_307)"/>
</svg>
