<svg width="62" height="69" viewBox="0 0 62 69" fill="none" xmlns="http://www.w3.org/2000/svg">
<path d="M1.16717 18.1247C1.1709 17.3653 1.98645 16.887 2.65105 17.2545L30.4839 32.6444C30.8023 32.8205 31 33.1557 31 33.5196V66.3612C31 67.1137 30.2002 67.5966 29.5343 67.2461L1.53722 52.5108C1.20711 52.3371 1.00115 51.994 1.00298 51.621L1.16717 18.1247Z" stroke="#716B6B" stroke-width="2"/>
<path d="M30.8246 66.3612C30.8246 67.1137 31.6244 67.5966 32.2903 67.2461L60.2903 52.5093C60.6189 52.3364 60.8246 51.9957 60.8246 51.6244V18.7967C60.8246 18.0442 60.0247 17.5614 59.3588 17.9118L31.3588 32.6487C31.0303 32.8216 30.8246 33.1623 30.8246 33.5336V66.3612Z" stroke="#716B6B" stroke-width="2"/>
<path d="M30.5286 33.0216C30.8229 33.1834 31.1788 33.1866 31.476 33.0302L59.355 18.3571C60.0601 17.986 60.0692 16.9796 59.371 16.5958L31.4714 1.2592C31.1771 1.0974 30.8212 1.09418 30.524 1.25061L2.64497 15.9238C1.93991 16.2948 1.93078 17.3012 2.62899 17.685L30.5286 33.0216Z" fill="#D9D9D9" stroke="#716B6B" stroke-width="2"/>
</svg>
