<svg width="62" height="65" viewBox="0 0 62 65" fill="none" xmlns="http://www.w3.org/2000/svg">
<path d="M60.8321 51.0333C60.8286 51.7587 60.078 52.2391 59.4178 51.9385L31 39L31 2.65641C31 1.9039 31.7998 1.42101 32.4658 1.77149L60.4628 16.5068C60.7929 16.6805 60.9989 17.0236 60.997 17.3966L60.8321 51.0333Z" stroke="#716B6B" stroke-width="2"/>
<path d="M51.5 47.4939C51.5 48.2091 50.7711 48.6931 50.1119 48.4156L42.6119 45.2577C42.2411 45.1015 42 44.7384 42 44.336L42 26.5802C42 25.8461 42.7646 25.3622 43.4281 25.6765L50.9281 29.2291C51.2773 29.3945 51.5 29.7464 51.5 30.1328L51.5 47.4939Z" stroke="#716B6B" stroke-width="2"/>
<path d="M31.1677 2.66502C31.1712 1.91049 30.3697 1.42406 29.702 1.77549L1.70967 16.5083C1.38111 16.6812 1.17541 17.0219 1.17541 17.3932L1.17541 50.3562C1.17541 51.0753 1.91164 51.5593 2.57181 51.2743L31 39L31.1677 2.66502Z" stroke="#716B6B" stroke-width="2"/>
<path d="M20.9923 19.6669C20.9958 18.9119 20.1934 18.4255 19.5257 18.7778L11.5334 22.9945C11.2053 23.1675 11 23.508 11 23.8789L11 33.4776C11 34.197 11.7369 34.681 12.3972 34.3953L20.3417 30.9568C20.7061 30.7991 20.9427 30.4408 20.9445 30.0437L20.9923 19.6669Z" stroke="#716B6B" stroke-width="2"/>
<path d="M31 39L3.21469 50.6016C2.39444 50.9441 2.39531 52.1065 3.21607 52.4478L30.6269 63.8449C30.8662 63.9444 31.1348 63.9471 31.3761 63.8524L58.7647 53.1052C59.5923 52.7804 59.6164 51.618 58.8029 51.2593L31 39Z" fill="#D9D9D9" stroke="#716B6B" stroke-width="2"/>
</svg>
