<svg width="66" height="66" viewBox="0 0 66 66" fill="none" xmlns="http://www.w3.org/2000/svg">
<mask id="path-1-outside-1_1_134" maskUnits="userSpaceOnUse" x="0" y="0" width="66" height="66" fill="black">
<rect fill="white" width="66" height="66"/>
<path fill-rule="evenodd" clip-rule="evenodd" d="M25.6402 3C26.0765 6.67746 29.2052 9.52937 33 9.52937C36.7948 9.52937 39.9236 6.67746 40.3598 3C43.4409 3.75327 46.3406 4.96882 48.9814 6.56896C47.8744 7.86398 47.2059 9.54508 47.2059 11.3823C47.2059 15.4757 50.5243 18.7941 54.6177 18.7941C56.4549 18.7941 58.136 18.1256 59.431 17.0186C61.0312 19.6594 62.2467 22.5591 63 25.6402C59.3225 26.0765 56.4706 29.2052 56.4706 33C56.4706 36.7948 59.3225 39.9235 63 40.3598C62.2467 43.4409 61.0312 46.3406 59.431 48.9814C58.136 47.8744 56.4549 47.2059 54.6177 47.2059C50.5243 47.2059 47.2059 50.5243 47.2059 54.6177C47.2059 56.4549 47.8744 58.136 48.9814 59.431C46.3406 61.0312 43.4409 62.2467 40.3598 63C39.9235 59.3225 36.7948 56.4706 33 56.4706C29.2052 56.4706 26.0765 59.3225 25.6402 63C22.5591 62.2467 19.6594 61.0312 17.0186 59.431C18.1256 58.136 18.7941 56.4549 18.7941 54.6177C18.7941 50.5243 15.4757 47.2059 11.3823 47.2059C9.54508 47.2059 7.86398 47.8744 6.56896 48.9814C4.96882 46.3406 3.75327 43.4409 2.99999 40.3598C6.67745 39.9235 9.52937 36.7948 9.52937 33C9.52937 29.2052 6.67745 26.0765 2.99999 25.6402C3.75327 22.5591 4.96882 19.6594 6.56896 17.0186C7.86398 18.1256 9.54508 18.7941 11.3823 18.7941C15.4757 18.7941 18.7941 15.4757 18.7941 11.3823C18.7941 9.54508 18.1256 7.86398 17.0186 6.56896C19.6594 4.96882 22.5591 3.75327 25.6402 3ZM33 48C41.2843 48 48 41.2843 48 33C48 24.7157 41.2843 18 33 18C24.7157 18 18 24.7157 18 33C18 41.2843 24.7157 48 33 48Z"/>
</mask>
<path fill-rule="evenodd" clip-rule="evenodd" d="M25.6402 3C26.0765 6.67746 29.2052 9.52937 33 9.52937C36.7948 9.52937 39.9236 6.67746 40.3598 3C43.4409 3.75327 46.3406 4.96882 48.9814 6.56896C47.8744 7.86398 47.2059 9.54508 47.2059 11.3823C47.2059 15.4757 50.5243 18.7941 54.6177 18.7941C56.4549 18.7941 58.136 18.1256 59.431 17.0186C61.0312 19.6594 62.2467 22.5591 63 25.6402C59.3225 26.0765 56.4706 29.2052 56.4706 33C56.4706 36.7948 59.3225 39.9235 63 40.3598C62.2467 43.4409 61.0312 46.3406 59.431 48.9814C58.136 47.8744 56.4549 47.2059 54.6177 47.2059C50.5243 47.2059 47.2059 50.5243 47.2059 54.6177C47.2059 56.4549 47.8744 58.136 48.9814 59.431C46.3406 61.0312 43.4409 62.2467 40.3598 63C39.9235 59.3225 36.7948 56.4706 33 56.4706C29.2052 56.4706 26.0765 59.3225 25.6402 63C22.5591 62.2467 19.6594 61.0312 17.0186 59.431C18.1256 58.136 18.7941 56.4549 18.7941 54.6177C18.7941 50.5243 15.4757 47.2059 11.3823 47.2059C9.54508 47.2059 7.86398 47.8744 6.56896 48.9814C4.96882 46.3406 3.75327 43.4409 2.99999 40.3598C6.67745 39.9235 9.52937 36.7948 9.52937 33C9.52937 29.2052 6.67745 26.0765 2.99999 25.6402C3.75327 22.5591 4.96882 19.6594 6.56896 17.0186C7.86398 18.1256 9.54508 18.7941 11.3823 18.7941C15.4757 18.7941 18.7941 15.4757 18.7941 11.3823C18.7941 9.54508 18.1256 7.86398 17.0186 6.56896C19.6594 4.96882 22.5591 3.75327 25.6402 3ZM33 48C41.2843 48 48 41.2843 48 33C48 24.7157 41.2843 18 33 18C24.7157 18 18 24.7157 18 33C18 41.2843 24.7157 48 33 48Z" fill="#D9D9D9"/>
<path d="M25.6402 3L27.6263 2.76439L27.3601 0.5206L25.1652 1.05722L25.6402 3ZM40.3598 3L40.8348 1.05722L38.6399 0.5206L38.3737 2.76439L40.3598 3ZM48.9814 6.56896L50.5016 7.86849L52.0316 6.07868L50.0178 4.85847L48.9814 6.56896ZM59.431 17.0186L61.1415 15.9822L59.9213 13.9684L58.1315 15.4984L59.431 17.0186ZM63 25.6402L63.2356 27.6263L65.4794 27.3601L64.9428 25.1652L63 25.6402ZM63 40.3598L64.9428 40.8348L65.4794 38.6399L63.2356 38.3737L63 40.3598ZM59.431 48.9814L58.1315 50.5016L59.9213 52.0316L61.1415 50.0178L59.431 48.9814ZM48.9814 59.431L50.0178 61.1415L52.0316 59.9213L50.5016 58.1315L48.9814 59.431ZM40.3598 63L38.3737 63.2356L38.6399 65.4794L40.8348 64.9428L40.3598 63ZM25.6402 63L25.1652 64.9428L27.3601 65.4794L27.6263 63.2356L25.6402 63ZM17.0186 59.431L15.4984 58.1315L13.9684 59.9213L15.9822 61.1415L17.0186 59.431ZM6.56896 48.9814L4.85847 50.0178L6.07869 52.0316L7.86849 50.5016L6.56896 48.9814ZM2.99999 40.3598L2.76439 38.3737L0.520597 38.6399L1.05721 40.8348L2.99999 40.3598ZM2.99999 25.6402L1.05721 25.1652L0.520598 27.3601L2.76439 27.6263L2.99999 25.6402ZM6.56896 17.0186L7.86849 15.4984L6.07868 13.9684L4.85847 15.9822L6.56896 17.0186ZM17.0186 6.56896L15.9822 4.85847L13.9684 6.07869L15.4984 7.86849L17.0186 6.56896ZM33 7.52937C30.2306 7.52937 27.9446 5.44744 27.6263 2.76439L23.6541 3.2356C24.2083 7.90747 28.1797 11.5294 33 11.5294V7.52937ZM38.3737 2.76439C38.0554 5.44744 35.7694 7.52937 33 7.52937V11.5294C37.8203 11.5294 41.7917 7.90747 42.3459 3.2356L38.3737 2.76439ZM50.0178 4.85847C47.2059 3.15462 44.1172 1.85972 40.8348 1.05722L39.8848 4.94278C42.7645 5.64682 45.4753 6.78302 47.9449 8.27945L50.0178 4.85847ZM49.2059 11.3823C49.2059 10.0393 49.6926 8.815 50.5016 7.86849L47.4611 5.26943C46.0562 6.91296 45.2059 9.05089 45.2059 11.3823H49.2059ZM54.6177 16.7941C51.6288 16.7941 49.2059 14.3712 49.2059 11.3823H45.2059C45.2059 16.5803 49.4197 20.7941 54.6177 20.7941V16.7941ZM58.1315 15.4984C57.185 16.3074 55.9607 16.7941 54.6177 16.7941V20.7941C56.9491 20.7941 59.087 19.9438 60.7306 18.5389L58.1315 15.4984ZM64.9428 25.1652C64.1403 21.8828 62.8454 18.7941 61.1415 15.9822L57.7206 18.0551C59.217 20.5247 60.3532 23.2355 61.0572 26.1152L64.9428 25.1652ZM58.4706 33C58.4706 30.2306 60.5526 27.9446 63.2356 27.6263L62.7644 23.6541C58.0925 24.2083 54.4706 28.1797 54.4706 33H58.4706ZM63.2356 38.3737C60.5526 38.0554 58.4706 35.7694 58.4706 33H54.4706C54.4706 37.8203 58.0925 41.7917 62.7644 42.3459L63.2356 38.3737ZM61.1415 50.0178C62.8454 47.2059 64.1403 44.1172 64.9428 40.8348L61.0572 39.8848C60.3532 42.7645 59.217 45.4753 57.7206 47.9449L61.1415 50.0178ZM54.6177 49.2059C55.9607 49.2059 57.185 49.6926 58.1315 50.5016L60.7306 47.4611C59.087 46.0562 56.9491 45.2059 54.6177 45.2059V49.2059ZM49.2059 54.6177C49.2059 51.6288 51.6288 49.2059 54.6177 49.2059V45.2059C49.4197 45.2059 45.2059 49.4197 45.2059 54.6177H49.2059ZM50.5016 58.1315C49.6926 57.185 49.2059 55.9607 49.2059 54.6177H45.2059C45.2059 56.9491 46.0562 59.087 47.4611 60.7306L50.5016 58.1315ZM40.8348 64.9428C44.1172 64.1403 47.2059 62.8454 50.0178 61.1415L47.9449 57.7206C45.4753 59.217 42.7645 60.3532 39.8848 61.0572L40.8348 64.9428ZM33 58.4706C35.7694 58.4706 38.0554 60.5526 38.3737 63.2356L42.3459 62.7644C41.7917 58.0925 37.8203 54.4706 33 54.4706V58.4706ZM27.6263 63.2356C27.9446 60.5526 30.2306 58.4706 33 58.4706V54.4706C28.1797 54.4706 24.2083 58.0925 23.6541 62.7644L27.6263 63.2356ZM15.9822 61.1415C18.7941 62.8454 21.8828 64.1403 25.1652 64.9428L26.1152 61.0572C23.2355 60.3532 20.5247 59.217 18.0551 57.7206L15.9822 61.1415ZM16.7941 54.6177C16.7941 55.9607 16.3074 57.185 15.4984 58.1315L18.5389 60.7306C19.9438 59.087 20.7941 56.9491 20.7941 54.6177H16.7941ZM11.3823 49.2059C14.3712 49.2059 16.7941 51.6288 16.7941 54.6177H20.7941C20.7941 49.4197 16.5803 45.2059 11.3823 45.2059V49.2059ZM7.86849 50.5016C8.815 49.6926 10.0393 49.2059 11.3823 49.2059V45.2059C9.05089 45.2059 6.91296 46.0562 5.26943 47.4611L7.86849 50.5016ZM1.05721 40.8348C1.85972 44.1172 3.15462 47.2059 4.85847 50.0178L8.27944 47.9449C6.78302 45.4753 5.64682 42.7645 4.94277 39.8848L1.05721 40.8348ZM7.52937 33C7.52937 35.7694 5.44744 38.0554 2.76439 38.3737L3.2356 42.3459C7.90747 41.7917 11.5294 37.8203 11.5294 33H7.52937ZM2.76439 27.6263C5.44744 27.9446 7.52937 30.2306 7.52937 33H11.5294C11.5294 28.1797 7.90747 24.2083 3.2356 23.6541L2.76439 27.6263ZM4.85847 15.9822C3.15462 18.7941 1.85972 21.8828 1.05721 25.1652L4.94277 26.1152C5.64682 23.2355 6.78302 20.5247 8.27944 18.0551L4.85847 15.9822ZM11.3823 16.7941C10.0393 16.7941 8.815 16.3074 7.86849 15.4984L5.26943 18.5389C6.91296 19.9438 9.05089 20.7941 11.3823 20.7941V16.7941ZM16.7941 11.3823C16.7941 14.3712 14.3712 16.7941 11.3823 16.7941V20.7941C16.5803 20.7941 20.7941 16.5803 20.7941 11.3823H16.7941ZM15.4984 7.86849C16.3074 8.815 16.7941 10.0393 16.7941 11.3823H20.7941C20.7941 9.05089 19.9438 6.91296 18.5389 5.26943L15.4984 7.86849ZM25.1652 1.05722C21.8828 1.85972 18.7941 3.15462 15.9822 4.85847L18.0551 8.27944C20.5247 6.78302 23.2355 5.64682 26.1152 4.94278L25.1652 1.05722ZM46 33C46 40.1797 40.1797 46 33 46V50C42.3888 50 50 42.3888 50 33H46ZM33 20C40.1797 20 46 25.8203 46 33H50C50 23.6112 42.3888 16 33 16V20ZM20 33C20 25.8203 25.8203 20 33 20V16C23.6112 16 16 23.6112 16 33H20ZM33 46C25.8203 46 20 40.1797 20 33H16C16 42.3888 23.6112 50 33 50V46Z" fill="#716B6B" mask="url(#path-1-outside-1_1_134)"/>
</svg>
